# xmcd
#
# Track frame offsets:
#	150
#	16726
#	37779
#	54853
#	70610
#	90711
#	104744
#	121496
#	139369
#	157456
#	175417
#	190833
#	209402
#	225861
#	241957
#	259327
#	277835
#
# Disc length: 3937 seconds
#
# Revision: 0
# Processed by: cddbd v1.5.2PL0 Copyright (c) Steve Scherf et al.
# Submitted via: EZCDAudioConverter 1.1.0.1
#
DISCID=ea0f5f11
DTITLE=Westlife - The Love Album
DYEAR=2006
DGENRE=
TTITLE0=The Rose
TTITLE1=Total Eclipse of the Heart
TTITLE2=All Out of Love
TTITLE3=You Light Up My Life
TTITLE4=Easy
TTITLE5=You Are So Beautiful 
TTITLE6=Have You Ever Been in Love
TTITLE7=Love Can Build a Bridge
TTITLE8=The Dance
TTITLE9=All or Nothing
TTITLE10=You've Lost That Loving Feeling
TTITLE11=Butterfly Kisses
TTITLE12=Nothing's Gonna Change My Love for You
TTITLE13=If
TTITLE14=Solitaire
TTITLE15=Still Here
TTITLE16=Total Eclipse Of The Heart
EXTD=
EXTT0=
EXTT1=
EXTT2=
EXTT3=
EXTT4=
EXTT5=
EXTT6=
EXTT7=
EXTT8=
EXTT9=
EXTT10=
EXTT11=
EXTT12=
EXTT13=
EXTT14=
EXTT15=
EXTT16=
PLAYORDER=
